<?xml version="1.0" standalone="no"?>
<!DOCTYPE svg PUBLIC "-//W3C//DTD SVG 20010904//EN"
 "http://www.w3.org/TR/2001/REC-SVG-20010904/DTD/svg10.dtd">
<svg version="1.0" xmlns="http://www.w3.org/2000/svg"
 width="700.000000pt" height="700.000000pt" viewBox="0 0 700.000000 700.000000"
 preserveAspectRatio="xMidYMid meet">
<g transform="translate(0.000000,700.000000) scale(0.100000,-0.100000)"
fill="#000000" stroke="none">
<path d="M3279 6996 c-2 -2 -39 -6 -82 -10 -70 -6 -177 -19 -247 -31 -14 -2
-41 -7 -60 -10 -19 -3 -42 -8 -50 -10 -8 -2 -31 -7 -50 -10 -19 -3 -69 -15
-110 -26 -41 -12 -84 -23 -96 -25 -46 -9 -325 -108 -424 -151 -94 -41 -318
-153 -374 -187 -300 -186 -474 -323 -696 -546 -453 -453 -763 -1006 -924
-1645 -8 -33 -17 -72 -20 -87 -4 -16 -8 -38 -11 -50 -8 -45 -34 -204 -40 -248
-3 -25 -8 -61 -10 -80 -22 -167 -22 -648 -1 -756 2 -11 7 -46 10 -76 7 -62 45
-288 51 -297 1 -3 6 -22 9 -41 11 -68 75 -287 121 -415 235 -649 651 -1210
1200 -1621 500 -375 1115 -609 1735 -662 176 -15 574 -7 720 14 492 72 920
221 1313 458 284 172 583 420 807 671 234 262 448 600 599 947 88 204 200 572
226 742 3 21 7 48 10 60 6 27 15 89 20 144 3 23 7 63 10 89 24 225 24 553 0
738 -2 17 -7 53 -10 80 -3 28 -11 79 -16 115 -6 36 -13 79 -16 95 -9 60 -73
313 -104 410 -213 675 -638 1285 -1194 1713 -44 34 -85 65 -90 69 -143 108
-428 272 -615 353 -52 22 -104 45 -115 49 -20 9 -104 40 -220 79 -152 52 -456
119 -625 137 -36 4 -78 9 -95 12 -35 5 -531 13 -536 9z m426 -400 c117 -8 268
-28 380 -51 44 -10 87 -18 95 -20 68 -14 313 -86 355 -105 11 -5 61 -25 110
-45 267 -109 553 -281 790 -478 97 -81 335 -325 417 -427 319 -400 525 -838
627 -1333 16 -78 32 -171 37 -207 4 -36 8 -76 10 -90 27 -187 21 -569 -11
-772 -4 -24 -9 -56 -11 -73 -23 -156 -82 -388 -140 -550 -333 -928 -1075
-1641 -1999 -1920 -124 -37 -302 -79 -390 -91 -27 -3 -57 -7 -65 -9 -8 -2 -46
-6 -85 -10 -38 -3 -86 -8 -105 -11 -50 -7 -341 -6 -435 1 -611 45 -1178 269
-1666 656 -123 97 -360 331 -451 444 -261 322 -438 647 -562 1030 -54 170
-103 383 -122 535 -3 30 -8 64 -10 75 -22 116 -22 576 0 705 3 14 7 50 11 81
3 31 8 67 10 80 3 13 12 60 20 104 160 841 695 1608 1431 2053 332 200 736
349 1079 397 22 3 67 10 100 15 33 5 105 12 160 15 55 4 101 7 102 8 3 4 225
-1 318 -7z"/>
<path d="M2762 6034 c-183 -49 -295 -199 -293 -392 1 -83 7 -115 32 -172 67
-151 190 -228 363 -228 137 0 278 58 321 131 13 22 17 51 16 125 -2 124 -8
156 -35 181 -32 30 -68 38 -168 35 -152 -3 -184 -17 -192 -85 -7 -69 22 -96
114 -106 33 -3 60 -9 60 -12 -1 -31 -85 -53 -149 -40 -107 22 -142 207 -58
311 39 48 113 49 201 2 55 -29 76 -35 109 -31 109 13 130 148 34 221 -81 62
-245 90 -355 60z"/>
<path d="M3343 6025 c-15 -7 -37 -22 -48 -35 -19 -21 -20 -38 -22 -326 -3
-346 -1 -358 66 -394 29 -15 320 -15 366 0 81 28 93 148 19 196 -20 14 -48 19
-112 19 -78 1 -86 3 -93 23 -5 12 -5 23 -1 23 4 1 40 3 80 5 81 4 124 23 141
61 26 57 3 131 -47 152 -16 7 -62 13 -101 14 -68 1 -88 10 -73 34 4 6 46 12
94 14 79 4 89 6 116 32 52 50 45 135 -14 173 -23 16 -51 19 -185 20 -102 0
-168 -4 -186 -11z"/>
<path d="M3903 6025 c-64 -27 -67 -46 -64 -374 2 -404 -9 -385 241 -388 177
-1 214 6 244 48 20 30 21 98 0 127 -26 38 -67 52 -153 52 -54 0 -81 4 -84 13
-10 29 6 37 69 37 106 0 164 39 164 109 0 79 -44 114 -148 117 -75 1 -106 14
-85 35 6 6 47 12 91 14 63 2 86 7 110 24 67 47 57 150 -19 188 -35 18 -323 17
-366 -2z"/>
<path d="M4473 5614 c-77 -32 -90 -128 -28 -191 15 -14 14 -18 -9 -42 -60 -63
-4 -135 86 -110 89 24 141 94 140 189 0 32 -7 73 -16 92 -29 61 -108 89 -173
62z"/>
<path d="M2950 5183 c-63 -12 -154 -64 -208 -121 -215 -221 -109 -588 193
-668 261 -70 518 148 499 421 -16 239 -244 412 -484 368z m161 -269 c121 -71
83 -253 -58 -280 -45 -8 -97 12 -132 51 -51 59 -53 137 -4 196 50 59 127 72
194 33z"/>
<path d="M3538 5171 c-17 -9 -41 -28 -52 -43 -19 -26 -20 -42 -18 -245 2 -240
11 -290 61 -360 76 -105 203 -151 358 -131 149 20 260 125 282 267 4 25 6 135
4 244 -2 167 -5 202 -19 227 -31 52 -96 68 -166 41 -52 -20 -58 -50 -61 -287
l-2 -216 -30 -24 c-36 -29 -103 -32 -140 -8 -36 23 -43 67 -43 256 0 93 -3
183 -6 201 -13 70 -103 111 -168 78z"/>
<path d="M4353 5179 c-42 -5 -76 -28 -94 -62 -6 -10 -10 -145 -9 -319 0 -338
4 -358 66 -384 58 -24 102 -18 140 20 19 19 35 41 35 50 3 38 7 77 8 86 3 26
32 4 87 -65 67 -84 105 -108 163 -101 70 8 112 52 110 114 -1 41 -9 55 -71
121 -32 34 -58 65 -58 70 0 5 16 21 36 36 116 88 108 289 -14 382 -24 18 -61
37 -84 44 -45 12 -248 17 -315 8z m220 -238 c34 -28 19 -72 -29 -83 -45 -11
-54 9 -45 95 1 13 54 4 74 -12z"/>
<path d="M2115 5170 c-47 -10 -73 -28 -90 -60 -31 -60 -18 -89 120 -265 l78
-100 2 -135 c1 -113 4 -141 20 -167 22 -37 62 -57 111 -55 46 2 71 17 94 55
17 28 20 51 20 170 l0 137 68 88 c82 106 131 180 134 201 0 9 2 23 3 31 2 24
-24 69 -51 87 -36 23 -114 22 -146 -3 -14 -10 -47 -49 -73 -86 -27 -38 -54
-68 -61 -68 -6 0 -35 31 -63 69 -28 38 -57 74 -65 80 -22 19 -68 28 -101 21z"/>
<path d="M2992 4322 c-31 -10 -76 -55 -96 -96 -9 -20 -57 -138 -105 -262 -80
-203 -89 -223 -89 -182 0 55 -29 123 -66 157 -30 28 -32 38 -11 77 8 16 15 47
15 69 0 98 -45 167 -131 204 -46 20 -64 22 -205 19 l-154 -3 -32 -33 -33 -32
0 -314 c1 -345 1 -348 65 -379 34 -18 253 -21 335 -6 66 12 132 47 165 87 l27
33 6 -40 c10 -77 79 -110 166 -80 20 7 40 26 57 54 l25 43 128 1 127 0 12 -32
c32 -85 160 -99 219 -24 l20 26 13 -23 c34 -65 139 -68 195 -6 17 19 21 40 25
143 3 70 9 122 15 124 6 2 66 -62 134 -142 67 -80 133 -150 147 -155 68 -26
143 1 165 58 6 15 10 152 9 319 0 325 -4 347 -60 382 -34 20 -92 21 -129 2
-44 -24 -55 -57 -57 -175 -2 -133 -2 -126 -14 -126 -8 0 -161 176 -224 257
-24 31 -84 60 -118 57 -43 -4 -89 -33 -102 -65 -9 -22 -12 -100 -11 -290 1
-143 -2 -256 -5 -252 -4 5 -49 112 -100 238 -108 269 -131 315 -173 346 -33
24 -111 35 -155 21z m-593 -236 c5 -3 11 -15 14 -26 6 -23 -25 -50 -51 -45 -9
2 -20 4 -24 4 -13 2 -9 69 5 74 13 5 42 1 56 -7z m685 -168 c22 -53 12 -59
-66 -49 -12 1 -10 14 7 55 20 47 39 46 59 -6z m-650 -97 c13 -11 14 -46 3 -58
-8 -7 -72 -12 -89 -7 -12 4 -18 16 -18 38 0 18 2 35 5 38 10 9 84 1 99 -11z"/>
<path d="M4298 4318 c-49 -10 -88 -59 -89 -111 0 -23 0 -161 1 -306 1 -285 4
-304 56 -337 28 -19 215 -26 318 -12 186 25 312 170 320 367 7 187 -101 345
-268 391 -52 14 -281 20 -338 8z m284 -238 c82 -38 84 -233 4 -285 -13 -9 -47
-18 -75 -22 -45 -5 -51 -4 -52 13 -7 99 -4 300 5 307 15 10 84 2 118 -13z"/>
<path d="M4935 3464 c-127 -41 -191 -128 -187 -257 4 -116 63 -175 221 -223
47 -14 92 -32 100 -39 12 -12 10 -16 -13 -26 -28 -13 -41 -11 -165 20 -53 14
-102 1 -129 -34 -15 -19 -21 -21 -38 -11 -10 6 -59 13 -109 16 l-90 5 -2 165
c-4 286 -7 317 -33 345 -62 66 -179 47 -205 -33 -9 -25 -12 -394 -6 -609 1
-41 48 -89 94 -96 18 -2 97 -4 177 -3 115 2 152 6 178 19 17 10 32 22 32 27 0
15 19 12 48 -8 67 -46 241 -63 337 -33 54 17 115 60 142 100 64 94 57 239 -15
314 -35 37 -69 54 -172 86 -68 22 -85 31 -85 47 0 23 25 25 72 8 92 -35 163
-20 188 40 8 20 15 46 15 58 0 39 -36 84 -85 108 -62 30 -197 37 -270 14z"/>
<path d="M1825 3447 c-132 -44 -195 -123 -197 -246 -2 -123 54 -184 219 -235
102 -33 118 -43 102 -62 -15 -18 -52 -18 -124 3 -109 30 -160 21 -189 -35 -60
-116 42 -209 241 -218 118 -5 200 21 262 85 99 102 99 272 1 355 -40 33 -80
52 -171 79 -59 18 -74 27 -74 42 0 24 25 26 77 7 82 -30 148 -19 179 32 40 65
13 138 -66 176 -58 28 -198 37 -260 17z"/>
<path d="M2424 3450 c-76 -17 -103 -62 -129 -215 -21 -125 -25 -148 -30 -165
-2 -8 -7 -37 -10 -65 -4 -27 -11 -68 -15 -90 -29 -136 -20 -195 36 -231 29
-19 101 -22 133 -5 29 16 59 78 67 138 13 98 32 96 65 -9 28 -88 61 -127 114
-137 90 -17 134 18 172 136 19 58 32 83 42 81 8 -2 15 -12 17 -23 13 -95 28
-137 61 -165 60 -53 160 -34 189 36 14 33 13 67 -1 149 -10 54 -37 199 -41
220 -5 23 -22 117 -30 160 -26 146 -75 199 -174 188 -85 -9 -119 -49 -166
-196 -20 -60 -33 -87 -42 -85 -8 2 -29 44 -47 96 -18 52 -41 105 -52 120 -41
55 -94 76 -159 62z"/>
<path d="M3273 3449 c-46 -9 -79 -33 -90 -66 -6 -16 -9 -156 -8 -324 1 -261 3
-300 18 -323 36 -54 56 -59 215 -59 189 1 197 2 235 34 28 24 32 32 32 79 -1
46 -4 55 -33 81 -21 18 -44 29 -65 30 -17 0 -59 2 -92 2 -54 2 -60 4 -63 25
-2 13 2 22 10 23 7 1 44 2 81 4 81 3 116 23 135 80 10 29 10 46 1 72 -17 52
-59 73 -147 73 -57 0 -74 3 -79 16 -10 26 8 33 92 35 88 2 117 15 141 60 24
46 18 85 -19 126 l-33 36 -150 1 c-82 1 -164 -1 -181 -5z"/>
<path d="M3794 3441 c-51 -31 -54 -56 -51 -383 4 -394 -7 -379 254 -377 135 0
167 4 195 18 45 25 65 78 49 129 -18 59 -50 75 -154 79 -50 1 -91 4 -93 5 -1
2 -4 104 -5 228 -1 130 -7 236 -13 250 -29 68 -115 92 -182 51z"/>
<path d="M5264 2592 c-90 -18 -154 -54 -213 -118 -59 -64 -91 -144 -98 -245
-21 -291 210 -488 497 -423 110 25 160 73 160 152 0 45 -22 80 -62 97 -30 12
-34 12 -156 -17 -111 -26 -181 34 -182 156 0 140 85 205 210 161 55 -20 95
-19 131 2 51 30 68 113 32 162 -47 65 -195 98 -319 73z"/>
<path d="M4725 2576 c-17 -7 -39 -26 -50 -42 -17 -27 -18 -50 -17 -332 2 -342
5 -357 67 -386 70 -33 150 -4 173 63 5 14 7 160 6 324 -2 282 -4 299 -24 331
-31 52 -94 69 -155 42z"/>
<path d="M3834 2546 c-40 -40 -37 -7 -35 -381 2 -316 2 -318 62 -354 35 -22
98 -21 132 2 51 33 53 52 50 377 -2 273 -4 304 -21 333 -23 40 -55 57 -110 57
-37 0 -50 -6 -78 -34z"/>
<path d="M4195 2570 c-11 -4 -31 -20 -45 -35 l-25 -27 0 -312 c0 -344 2 -353
60 -383 37 -20 100 -18 133 3 37 24 52 73 52 174 l0 90 28 1 c15 1 38 1 52 1
82 -1 141 42 145 105 5 81 -50 123 -161 123 -65 0 -79 6 -65 29 6 9 35 14 88
16 44 1 88 7 99 13 79 42 80 158 1 195 -28 14 -65 17 -189 16 -84 0 -162 -4
-173 -9z"/>
<path d="M1450 2560 c-77 -10 -113 -45 -112 -111 0 -21 6 -47 12 -58 15 -29
67 -54 112 -54 21 0 41 -4 45 -10 3 -6 7 -113 8 -239 2 -212 3 -231 22 -256
38 -51 105 -67 162 -38 60 31 61 37 64 361 l2 179 35 3 c59 4 81 13 106 40
l24 26 0 -249 c0 -296 4 -319 68 -353 36 -19 334 -16 377 5 70 33 78 139 13
185 -26 19 -45 23 -119 23 -75 1 -89 4 -93 18 -6 26 10 32 87 35 101 3 147 39
147 113 0 78 -45 110 -153 110 -53 0 -76 4 -80 13 -10 27 9 34 93 39 48 2 95
10 107 18 45 28 59 109 28 157 -29 44 -66 51 -235 49 -166 -3 -196 -10 -222
-53 l-16 -26 -11 21 c-25 46 -63 55 -251 56 -96 1 -195 -1 -220 -4z"/>
<path d="M2560 2562 c-30 -13 -57 -37 -69 -60 -11 -21 -15 -369 -7 -580 4
-100 62 -152 150 -132 28 6 84 47 86 63 0 1 3 27 6 57 4 30 8 56 9 58 7 7 43
-23 63 -52 35 -49 85 -102 109 -115 30 -16 89 -14 123 4 41 21 60 53 60 101 0
37 -7 49 -65 112 -60 65 -77 92 -57 92 17 0 76 66 93 105 13 28 17 60 16 110
-4 115 -60 189 -173 229 -43 15 -315 21 -344 8z m248 -235 c17 -13 15 -52 -4
-68 -21 -17 -74 -20 -75 -5 0 6 -2 26 -4 44 -3 27 1 35 18 41 23 9 43 5 65
-12z"/>
<path d="M3192 2550 c-57 -35 -60 -53 -58 -380 2 -269 4 -299 21 -328 27 -45
94 -68 146 -50 47 16 71 52 78 114 3 32 11 59 17 61 5 2 34 -26 63 -62 78 -96
104 -115 158 -115 25 0 58 8 74 17 30 18 59 67 59 101 0 25 -34 75 -93 136
l-48 48 49 47 c55 53 75 100 76 177 0 74 -27 137 -81 184 -64 56 -111 67 -283
69 -130 1 -148 -1 -178 -19z m275 -233 c11 -24 0 -66 -17 -68 -62 -8 -65 -6
-68 43 -3 42 -1 47 20 50 36 6 55 -2 65 -25z"/>
<path d="M2245 1579 c-219 -83 -229 -386 -16 -491 l46 -23 1210 0 c1370 0
1262 -7 1349 82 80 81 98 202 46 307 -27 53 -60 85 -124 119 l-41 22 -1210 2
c-1166 1 -1212 1 -1260 -18z m2495 -53 c81 -44 120 -115 116 -209 -4 -85 -41
-142 -121 -185 -27 -15 -134 -17 -1225 -18 -718 0 -1209 3 -1232 9 -47 12
-110 66 -133 113 -39 83 -22 184 43 247 71 69 -11 65 1317 64 1157 -2 1201 -3
1235 -21z"/>
<path d="M3054 1345 c-1 -103 0 -105 23 -105 21 0 23 4 23 54 0 41 4 55 17 60
26 10 36 -9 34 -64 -1 -47 0 -50 24 -50 24 0 25 3 25 58 0 70 -19 102 -60 102
-15 0 -31 -6 -33 -12 -3 -7 -6 4 -6 25 -1 32 -4 37 -24 37 -23 0 -23 -2 -23
-105z"/>
<path d="M3227 1443 c-14 -13 -6 -33 12 -33 16 0 31 18 31 36 0 7 -36 5 -43
-3z"/>
<path d="M3295 1425 c1 -16 -3 -25 -11 -25 -8 0 -14 -5 -14 -11 0 -6 -5 -7
-12 -2 -34 20 -38 12 -38 -73 0 -82 0 -83 23 -75 19 7 22 15 22 68 0 49 2 59
15 56 12 -3 16 -18 15 -64 -1 -55 1 -59 22 -59 24 0 28 14 23 82 -2 31 16 46
24 20 4 -10 23 -26 43 -36 25 -12 33 -20 25 -28 -6 -6 -16 -7 -24 -2 -33 21
-56 8 -35 -19 25 -34 100 -24 112 14 8 24 -11 59 -33 59 -9 0 -24 5 -32 10
-12 7 -12 12 -2 22 9 9 12 9 12 0 0 -7 11 -12 25 -12 29 0 32 12 9 34 -20 21
-63 20 -86 -1 -15 -14 -19 -14 -16 -3 2 8 -3 14 -9 13 -8 -2 -13 8 -13 27 0
25 -4 30 -24 30 -20 0 -24 -4 -21 -25z"/>
<path d="M3733 1438 c-5 -7 -15 -26 -23 -41 -11 -23 -12 -30 -1 -36 8 -5 12
-24 11 -47 -4 -66 -2 -74 24 -74 22 0 23 3 22 60 -2 42 2 61 11 64 10 4 11 11
4 24 -6 11 -6 24 0 33 5 7 9 17 9 22 0 12 -47 8 -57 -5z"/>
<path d="M3870 1419 c0 -16 -4 -28 -9 -24 -17 10 -24 -18 -8 -30 12 -9 17 -28
17 -69 0 -52 2 -56 23 -56 22 0 23 4 22 60 -1 45 2 60 12 60 8 0 11 5 7 12 -4
6 -3 8 3 5 5 -3 9 -35 8 -71 -1 -63 0 -66 22 -66 21 0 23 4 23 54 0 41 4 55
17 60 24 10 32 -4 35 -59 3 -43 6 -50 26 -53 21 -3 22 0 22 61 0 77 -20 104
-70 94 -28 -6 -30 -5 -30 24 0 26 -3 30 -22 27 -18 -2 -23 -9 -21 -29 1 -16
-4 -26 -13 -26 -8 0 -15 4 -15 9 -1 4 -3 13 -4 18 -1 6 -3 15 -4 20 0 6 -10
10 -21 10 -16 0 -20 -7 -20 -31z"/>
<path d="M4306 1443 c-2 -2 -1 -13 1 -24 4 -15 12 -19 34 -15 16 2 31 0 34 -5
3 -4 -10 -42 -28 -83 l-35 -74 28 -4 c26 -4 30 0 61 74 18 43 35 78 38 78 3 0
4 -22 3 -48 -3 -40 1 -54 20 -75 35 -40 74 -42 109 -8 18 19 27 36 24 50 -2
11 0 23 6 26 5 4 9 1 9 -4 0 -6 16 -17 35 -25 19 -8 35 -20 35 -25 0 -13 -27
-14 -34 -2 -7 10 -37 8 -36 -2 0 -4 0 -12 0 -17 0 -15 42 -29 71 -23 57 11 59
75 3 95 -44 16 -44 31 1 22 38 -7 45 4 19 30 -20 20 -68 21 -84 1 -15 -18 -30
-11 -30 15 0 23 -36 50 -67 50 -32 0 -71 -20 -76 -39 -3 -9 -5 -4 -6 12 -1 27
-2 27 -66 26 -35 -1 -66 -3 -69 -6z m235 -72 c5 -76 -8 -104 -36 -81 -15 13
-16 84 -1 109 11 18 36 0 37 -28z"/>
<path d="M2275 1384 c-26 -26 -14 -57 29 -77 28 -13 36 -21 28 -29 -8 -8 -15
-8 -24 -1 -18 14 -48 12 -48 -3 0 -35 73 -50 108 -22 24 20 10 62 -25 77 -43
19 -42 31 2 24 39 -6 45 5 17 30 -24 22 -66 22 -87 1z"/>
<path d="M2397 1392 c-2 -4 -4 -33 -5 -64 -2 -50 1 -59 25 -78 16 -12 33 -18
42 -14 9 4 31 6 49 5 l33 -2 -3 78 c-3 70 -5 78 -23 78 -17 0 -21 -8 -25 -55
-4 -47 -8 -55 -25 -55 -17 0 -21 8 -25 54 -4 42 -9 55 -22 57 -10 1 -19 -1
-21 -4z"/>
<path d="M2559 1317 c-1 -75 0 -119 4 -124 1 0 11 -3 22 -5 16 -2 20 3 21 27
2 39 2 39 17 28 6 -5 18 -8 25 -7 6 1 20 2 30 3 11 0 27 17 37 36 l19 34 12
-28 c16 -39 66 -56 104 -36 37 19 47 45 17 45 -13 0 -28 -5 -34 -11 -8 -8 -17
-7 -34 2 l-24 13 25 6 c14 3 42 6 63 5 40 -2 42 0 27 41 -24 61 -84 72 -131
24 -18 -17 -27 -35 -23 -41 4 -8 3 -9 -5 -5 -6 4 -9 11 -7 15 19 30 -78 77
-108 52 -7 -6 -16 -8 -20 -4 -3 4 -13 8 -21 9 -12 2 -15 -14 -16 -79z m121 8
c0 -28 -13 -45 -36 -45 -42 0 -56 63 -16 73 23 5 52 -11 52 -28z m163 20 c-3
-10 -41 -15 -57 -7 -13 7 17 22 39 20 11 -2 19 -7 18 -13z"/>
<path d="M2910 1318 c0 -75 1 -78 23 -78 20 0 23 5 24 33 1 68 3 77 18 77 8 0
15 7 15 15 0 8 1 18 3 22 1 4 -17 8 -40 8 l-43 0 0 -77z"/>
<path d="M3564 1378 c-31 -34 -35 -55 -20 -92 25 -60 103 -68 140 -14 37 53 8
116 -59 125 -33 4 -44 1 -61 -19z m91 -58 c0 -30 -29 -49 -52 -34 -24 15 -27
38 -8 57 22 22 60 7 60 -23z"/>
<path d="M4139 1387 c-54 -42 -45 -124 18 -148 29 -11 80 7 94 33 10 19 9 20
-17 16 -16 -3 -36 -8 -44 -11 -16 -7 -48 8 -38 18 3 4 30 8 60 9 50 2 53 4 50
27 -5 52 -82 87 -123 56z m68 -43 c2 -7 -8 -11 -27 -10 -30 1 -36 6 -23 20 10
10 46 3 50 -10z"/>
</g>
</svg>
